<?xml version="1.0" encoding="UTF-8" ?>
<!DOCTYPE svg PUBLIC "-//W3C//DTD SVG 1.1//EN" "http://www.w3.org/Graphics/SVG/1.1/DTD/svg11.dtd">
<svg width="1250pt" height="533pt" viewBox="0 0 1250 533" version="1.1" xmlns="http://www.w3.org/2000/svg">
<path fill="#ffffff" d=" M 0.00 0.00 L 1250.00 0.00 L 1250.00 533.00 L 0.00 533.00 L 0.00 0.00 Z" />
<path fill="#000000" d=" M 488.30 53.29 C 500.84 40.25 519.07 33.69 536.95 33.49 C 605.97 33.50 674.99 33.49 744.01 33.50 C 755.77 33.60 767.76 32.72 779.24 35.92 C 795.90 40.02 810.82 50.95 819.31 65.92 C 825.99 77.40 828.63 90.77 828.73 103.94 C 828.69 128.29 828.97 152.65 828.50 176.99 C 828.49 202.75 828.53 228.50 828.48 254.26 C 708.83 254.24 589.19 254.26 469.55 254.25 C 468.88 232.20 469.42 210.12 469.25 188.05 C 469.25 158.68 469.25 129.31 469.24 99.93 C 469.64 82.80 476.03 65.48 488.30 53.29 Z" />
<path fill="#448cca" d=" M 333.30 99.44 C 335.94 98.11 339.90 99.83 340.01 102.97 C 340.58 105.77 338.00 107.55 336.43 109.44 C 323.63 123.28 316.34 142.13 316.73 161.00 C 316.60 180.76 325.16 200.11 339.04 214.04 C 342.50 217.82 337.21 224.04 332.91 221.09 C 309.59 199.40 301.36 163.67 311.50 133.63 C 315.90 120.78 323.03 108.43 333.30 99.44 Z" />
<path fill="#448cca" d=" M 962.22 99.29 C 963.98 98.56 966.09 99.16 967.39 100.52 C 981.33 114.41 990.09 133.36 991.67 152.98 C 993.95 177.53 984.92 202.98 967.31 220.29 C 965.10 222.77 960.60 221.98 959.47 218.86 C 958.72 216.80 959.34 214.50 961.01 213.11 C 974.75 199.15 982.84 179.68 982.52 160.06 C 982.73 140.46 974.49 121.15 960.80 107.22 C 958.15 105.05 958.78 100.24 962.22 99.29 Z" />
<path fill="#448cca" d=" M 348.16 113.09 C 350.69 112.42 353.92 114.18 354.01 116.97 C 354.46 119.50 352.33 121.22 350.87 122.93 C 341.46 133.16 336.19 147.08 336.48 160.99 C 336.55 175.28 342.52 189.38 352.58 199.51 C 354.94 201.62 354.39 206.12 351.39 207.34 C 349.24 208.43 346.73 207.44 345.27 205.71 C 333.43 193.70 326.69 176.85 326.97 159.99 C 326.88 143.68 333.39 127.47 344.65 115.67 C 345.68 114.67 346.72 113.51 348.16 113.09 Z" />
<path fill="#448cca" d=" M 948.19 113.27 C 950.25 112.36 952.52 113.44 953.92 115.01 C 965.38 126.60 972.07 142.72 972.28 159.01 C 972.76 176.24 966.02 193.61 953.84 205.83 C 952.22 207.70 949.32 208.54 947.21 206.98 C 944.49 205.23 944.59 201.01 947.06 199.08 C 959.57 186.36 965.27 167.39 961.83 149.88 C 959.84 139.08 954.44 129.04 946.80 121.17 C 944.25 118.99 944.80 114.28 948.19 113.27 Z" />
<path fill="#ffffff" d=" M 557.50 117.78 C 569.43 115.69 582.11 118.21 592.38 124.63 C 604.58 132.09 613.25 145.06 615.48 159.19 C 616.86 168.50 615.92 178.22 612.14 186.89 C 606.59 199.93 595.29 210.38 581.83 214.83 C 567.58 219.59 551.14 217.75 538.59 209.36 C 526.71 201.79 518.31 188.96 516.11 175.04 C 513.70 160.99 517.94 146.00 527.19 135.16 C 534.79 125.99 545.75 119.71 557.50 117.78 Z" />
<path fill="#448cca" d=" M 934.24 127.35 C 935.76 127.14 937.62 126.92 938.78 128.18 C 954.84 143.09 956.81 170.20 943.46 187.49 C 941.24 190.14 939.00 194.29 934.96 193.74 C 931.16 193.44 929.67 187.99 932.55 185.62 C 937.20 180.73 940.76 174.73 942.15 168.08 C 944.90 156.43 941.09 143.70 932.75 135.20 C 930.13 133.05 930.78 128.20 934.24 127.35 Z" />
<path fill="#448cca" d=" M 360.48 128.17 C 362.91 125.96 367.92 127.44 368.04 130.96 C 368.58 134.01 365.65 135.80 364.11 137.99 C 354.76 149.20 353.65 166.29 361.33 178.68 C 362.97 181.54 365.28 183.91 367.37 186.43 C 369.50 189.07 367.44 193.83 363.92 193.77 C 360.20 194.09 358.19 190.34 356.09 187.93 C 342.42 170.64 344.23 143.19 360.48 128.17 Z" />
<path fill="#ffffff" d=" M 719.54 131.73 C 734.99 128.59 751.66 137.74 757.32 152.44 C 760.57 160.42 760.64 169.64 757.43 177.65 C 752.51 190.20 739.55 199.37 725.96 199.04 C 713.62 199.41 701.52 192.14 695.76 181.27 C 690.38 171.58 690.37 159.20 695.51 149.41 C 700.24 140.25 709.38 133.53 719.54 131.73 Z" />
<path fill="#000000" d=" M 379.32 144.32 C 387.04 135.65 402.56 134.28 410.43 143.44 C 413.16 147.21 417.14 150.36 422.00 150.47 C 432.96 150.56 443.93 150.45 454.89 150.50 C 459.14 150.44 463.99 152.67 464.86 157.22 C 466.50 162.24 463.44 168.25 457.97 168.90 C 446.37 169.87 434.66 168.68 423.04 169.57 C 418.75 169.91 415.14 172.48 411.43 174.39 C 406.28 177.04 401.30 180.00 396.24 182.82 C 387.67 181.60 379.29 176.66 375.55 168.62 C 371.64 160.75 373.35 150.70 379.32 144.32 Z" />
<path fill="#000000" d=" M 897.41 137.56 C 903.20 136.76 909.23 138.61 914.11 141.73 C 920.36 145.83 923.85 153.47 923.10 160.88 C 922.62 167.28 919.29 173.47 914.01 177.17 C 907.55 181.89 898.36 182.72 891.21 179.10 C 886.70 176.99 884.64 171.85 880.12 169.78 C 877.60 168.57 874.77 168.21 872.02 168.24 C 863.02 168.24 854.02 168.28 845.03 168.23 C 841.16 168.04 836.75 168.03 833.79 165.15 C 830.98 162.15 831.08 157.40 832.59 153.80 C 834.64 149.64 839.85 149.05 843.97 149.00 C 853.29 149.04 862.62 148.87 871.93 149.16 C 878.00 149.27 884.51 147.38 888.20 142.24 C 890.24 139.13 894.04 138.36 897.41 137.56 Z" />
<path fill="#448cca" d=" M 603.43 259.60 C 632.94 259.34 662.45 259.58 691.96 259.48 C 709.29 260.01 726.63 259.62 743.96 259.77 C 745.90 259.74 747.93 260.20 749.36 261.62 C 752.20 264.16 755.42 267.01 756.03 270.99 C 755.63 276.08 751.65 279.97 747.85 282.94 C 744.51 284.62 740.62 283.72 737.05 283.77 C 685.39 284.24 633.72 283.89 582.05 284.00 C 574.02 284.23 566.00 283.43 557.98 283.99 C 553.35 284.56 550.11 280.80 547.29 277.76 C 544.99 275.30 543.43 271.52 545.53 268.44 C 548.15 264.42 551.72 259.64 557.03 259.66 C 572.49 259.73 587.97 259.91 603.43 259.60 Z" />
<path fill="#448cca" d=" M 581.47 289.68 C 583.59 289.18 585.77 289.02 587.95 288.99 C 630.31 289.01 672.68 289.01 715.05 288.99 C 719.61 289.04 724.68 289.53 728.12 292.88 C 731.62 296.04 731.94 301.40 730.59 305.66 C 728.83 310.30 723.83 312.74 719.10 312.95 C 674.35 313.44 629.59 313.36 584.84 312.97 C 580.61 312.79 576.04 311.14 573.66 307.44 C 571.82 304.69 571.66 301.18 572.22 298.02 C 573.15 293.63 577.19 290.48 581.47 289.68 Z" />
<path fill="#000000" d=" M 219.00 328.00 C 224.17 328.00 229.34 327.99 234.51 328.01 C 234.49 364.09 234.50 400.17 234.50 436.24 C 258.00 436.25 281.50 436.25 304.99 436.24 C 305.01 441.49 305.00 446.74 305.00 452.00 C 276.33 452.00 247.67 452.00 219.00 452.00 C 219.00 410.67 219.00 369.33 219.00 328.00 Z" />
<path fill="#000000" d=" M 319.30 350.52 C 324.07 338.02 336.65 328.87 350.06 328.50 C 380.21 328.50 410.35 328.50 440.50 328.50 C 440.51 333.66 440.49 338.82 440.51 343.99 C 410.96 344.04 381.40 343.94 351.85 344.04 C 343.47 344.02 335.53 350.02 333.33 358.12 C 331.02 365.54 334.17 374.10 340.48 378.54 C 344.64 381.59 349.92 382.48 354.97 382.51 C 369.97 382.49 384.97 382.50 399.97 382.50 C 404.72 382.55 409.55 382.13 414.19 383.42 C 425.40 386.03 434.96 394.67 438.68 405.57 C 443.81 419.88 438.53 437.23 425.84 445.79 C 418.47 451.28 409.01 452.62 400.04 452.26 C 372.36 452.24 344.68 452.26 317.00 452.25 C 317.00 447.00 316.99 441.74 317.01 436.49 C 346.36 436.51 375.70 436.49 405.05 436.50 C 409.72 436.54 414.40 434.98 417.99 431.98 C 424.34 426.77 426.73 417.27 423.34 409.74 C 420.41 402.50 412.70 397.88 404.97 398.01 C 388.97 397.98 372.97 398.01 356.97 398.00 C 353.02 397.95 349.03 398.26 345.13 397.47 C 336.22 395.79 328.09 390.40 322.99 382.91 C 316.47 373.62 315.14 361.04 319.30 350.52 Z" />
<path fill="#000000" d=" M 453.01 328.49 C 494.26 328.50 535.50 328.50 576.74 328.49 C 576.76 333.66 576.74 338.83 576.76 343.99 C 540.67 344.01 504.59 343.99 468.50 344.00 C 468.50 356.67 468.50 369.33 468.50 382.00 C 501.25 382.01 534.01 381.99 566.76 382.01 C 566.74 387.17 566.76 392.34 566.74 397.51 C 534.00 397.50 501.25 397.50 468.50 397.50 C 468.50 410.50 468.50 423.50 468.50 436.50 C 504.58 436.50 540.66 436.50 576.74 436.49 C 576.76 441.74 576.74 446.99 576.76 452.24 C 535.51 452.26 494.26 452.25 453.00 452.25 C 453.01 411.00 452.99 369.74 453.01 328.49 Z" />
<path fill="#000000" d=" M 731.69 342.61 C 738.13 333.76 748.98 328.17 759.97 328.48 C 789.48 328.52 818.99 328.49 848.50 328.50 C 848.50 333.66 848.49 338.82 848.51 343.99 C 818.97 344.04 789.42 343.94 759.88 344.04 C 750.43 343.96 741.71 351.64 740.72 361.05 C 739.75 368.36 743.68 375.98 750.10 379.58 C 753.99 381.85 758.58 382.45 763.02 382.51 C 780.01 382.48 797.00 382.52 813.99 382.48 C 824.28 382.32 834.46 387.23 840.90 395.23 C 850.50 406.72 851.16 424.59 842.62 436.86 C 836.19 446.62 824.59 452.38 812.97 452.22 C 783.65 452.29 754.33 452.23 725.00 452.25 C 725.00 447.00 724.99 441.74 725.01 436.49 C 754.35 436.51 783.69 436.49 813.03 436.50 C 819.09 436.59 825.25 433.85 828.88 428.92 C 833.44 423.15 834.18 414.65 830.62 408.21 C 827.29 401.82 820.17 397.93 813.04 398.01 C 794.69 397.97 776.35 398.02 758.01 397.99 C 743.42 397.61 729.98 386.76 726.20 372.71 C 723.35 362.55 725.28 351.06 731.69 342.61 Z" />
<path fill="#000000" d=" M 860.00 328.00 C 865.17 328.00 870.34 327.99 875.51 328.01 C 875.52 369.32 875.45 410.63 875.55 451.94 C 870.36 452.06 865.18 451.97 860.00 452.00 C 860.00 410.67 860.00 369.33 860.00 328.00 Z" />
<path fill="#000000" d=" M 1059.81 333.60 C 1074.06 326.92 1090.89 326.14 1105.78 331.13 C 1123.51 337.04 1138.02 351.43 1144.34 368.99 C 1138.63 369.01 1132.91 368.99 1127.20 369.00 C 1121.71 358.82 1112.60 350.49 1101.62 346.67 C 1087.92 341.79 1071.97 343.88 1059.98 352.10 C 1048.97 359.48 1041.35 371.80 1039.90 385.00 C 1038.25 398.28 1042.94 412.17 1052.19 421.82 C 1061.23 431.62 1074.69 437.04 1087.99 436.43 C 1106.46 435.75 1123.50 422.90 1129.57 405.49 C 1115.72 405.52 1101.86 405.49 1088.01 405.51 C 1087.98 400.34 1088.00 395.17 1088.00 390.00 C 1107.93 390.01 1127.85 389.99 1147.78 390.01 C 1148.46 414.93 1131.94 438.87 1108.79 447.79 C 1094.53 453.48 1078.15 453.58 1063.80 448.15 C 1048.09 442.29 1035.03 429.68 1028.66 414.16 C 1022.25 398.86 1022.36 380.98 1028.82 365.71 C 1034.70 351.67 1045.97 339.95 1059.81 333.60 Z" />
<path fill="#000000" d=" M 82.75 329.00 C 124.09 329.00 165.42 328.99 206.76 329.01 C 206.74 334.18 206.78 339.34 206.73 344.51 C 188.65 344.49 170.58 344.50 152.50 344.51 C 152.52 380.33 152.47 416.14 152.53 451.96 C 147.35 452.03 142.18 451.98 137.00 452.00 C 137.00 416.17 137.00 380.33 137.00 344.50 C 118.91 344.49 100.83 344.53 82.74 344.48 C 82.76 339.32 82.74 334.16 82.75 329.00 Z" />
<path fill="#448cca" d=" M 602.14 352.12 C 613.61 337.25 632.22 328.20 651.01 328.46 C 664.11 328.23 677.15 332.58 687.72 340.28 C 702.82 351.22 712.68 369.27 713.01 387.99 C 712.99 409.33 713.00 430.66 713.00 452.00 C 707.81 451.98 702.63 452.06 697.45 451.93 C 697.53 431.64 697.51 411.34 697.46 391.05 C 697.44 380.49 694.01 369.90 687.33 361.66 C 677.08 348.52 659.35 341.69 642.96 344.81 C 626.21 347.64 611.63 360.41 606.70 376.67 C 603.84 385.48 604.61 394.86 604.51 403.97 C 604.56 419.94 604.40 435.91 604.59 451.88 C 599.39 452.12 594.19 451.95 589.00 452.00 C 589.02 431.32 588.96 410.64 589.03 389.96 C 589.15 376.37 593.69 362.81 602.14 352.12 Z" />
<path fill="#000000" d=" M 901.13 352.15 C 912.59 337.28 931.19 328.20 949.98 328.47 C 962.63 328.23 975.25 332.29 985.61 339.50 C 998.53 348.46 1007.84 362.45 1010.90 377.89 C 1012.40 384.48 1011.94 391.27 1012.00 397.97 C 1012.00 415.98 1012.00 433.99 1012.00 452.00 C 1006.83 451.99 1001.66 452.01 996.49 451.99 C 996.51 433.67 996.49 415.36 996.50 397.04 C 996.53 391.00 996.50 384.86 994.95 378.98 C 992.21 368.08 985.29 358.30 975.94 352.05 C 964.76 344.40 950.11 342.03 937.11 345.94 C 922.98 349.97 911.12 361.10 906.26 374.97 C 902.57 384.91 903.67 395.66 903.50 406.04 C 903.51 421.35 903.49 436.67 903.51 451.99 C 898.34 452.01 893.17 451.99 888.00 452.00 C 888.02 431.32 887.97 410.63 888.02 389.95 C 888.16 376.37 892.69 362.83 901.13 352.15 Z" />
</svg>
